name GIL03_xslow1EmgEnv.mot
datacolumns 51
datarows 11
range 0.26759258 0.27685183
endheader
                time	   rect_fem_l_emgRec	   rect_fem_l_emgEnv	   rect_fem_l_emgAve	   rect_fem_l_emgSDp	   rect_fem_l_emgSDm	   rect_fem_r_emgRec	   rect_fem_r_emgEnv	   rect_fem_r_emgAve	   rect_fem_r_emgSDp	   rect_fem_r_emgSDm	   med_hams_l_emgRec	   med_hams_l_emgEnv	   med_hams_l_emgAve	   med_hams_l_emgSDp	   med_hams_l_emgSDm	   med_hams_r_emgRec	   med_hams_r_emgEnv	   med_hams_r_emgAve	   med_hams_r_emgSDp	   med_hams_r_emgSDm	   lat_hams_l_emgRec	   lat_hams_l_emgEnv	   lat_hams_l_emgAve	   lat_hams_l_emgSDp	   lat_hams_l_emgSDm	   lat_hams_r_emgRec	   lat_hams_r_emgEnv	   lat_hams_r_emgAve	   lat_hams_r_emgSDp	   lat_hams_r_emgSDm	    tib_ant_l_emgRec	    tib_ant_l_emgEnv	    tib_ant_l_emgAve	    tib_ant_l_emgSDp	    tib_ant_l_emgSDm	    tib_ant_r_emgRec	    tib_ant_r_emgEnv	    tib_ant_r_emgAve	    tib_ant_r_emgSDp	    tib_ant_r_emgSDm	    gas_sol_l_emgRec	    gas_sol_l_emgEnv	    gas_sol_l_emgAve	    gas_sol_l_emgSDp	    gas_sol_l_emgSDm	    gas_sol_r_emgRec	    gas_sol_r_emgEnv	    gas_sol_r_emgAve	    gas_sol_r_emgSDp	    gas_sol_r_emgSDm	
          0.26759258	          0.01041288	          0.05401565	          0.10339276	          0.15659193	          0.05019359	          0.02043158	          0.05164494	          0.05192918	          0.07010601	          0.03375235	          0.00534275	          0.10985776	          0.15462640	          0.21854669	          0.09070611	          0.00356822	          0.05567229	          0.20137003	          0.28049215	          0.12224791	          0.02926157	          0.11079529	          0.24428156	          0.39013644	          0.09842668	          0.00050036	          0.01073741	          0.03489835	          0.05040351	          0.01939319	          0.00897369	          0.12024302	          0.06360655	          0.07732665	          0.04988644	          0.01305331	          0.36595740	          0.30893928	          0.53365661	          0.08422194	          0.31704955	          0.41836979	          0.27953428	          0.50625835	          0.05281021	          0.00369628	          0.01715397	          0.04250479	          0.04884661	          0.03616297	
          0.26851851	          0.01494874	          0.05298764	          0.10305823	          0.15630617	          0.04981028	          0.02290360	          0.05173975	          0.05149639	          0.06947573	          0.03351705	          0.00848709	          0.11036011	          0.15393446	          0.21791624	          0.08995268	          0.01791085	          0.05595732	          0.20127386	          0.28024564	          0.12230208	          0.05587152	          0.11121981	          0.24345800	          0.38952008	          0.09739593	          0.00053257	          0.01127559	          0.03500762	          0.05051296	          0.01950227	          0.01693478	          0.11830618	          0.06305987	          0.07618704	          0.04993270	          0.09913613	          0.36041272	          0.31020635	          0.53525220	          0.08516051	          0.03168789	          0.41620338	          0.27947038	          0.50706282	          0.05187795	          0.00107623	          0.01699601	          0.04262146	          0.04900773	          0.03623519	
          0.26944444	          0.01818927	          0.05198028	          0.10272669	          0.15601780	          0.04943558	          0.01455181	          0.05180670	          0.05106315	          0.06884474	          0.03328157	          0.01544431	          0.11083836	          0.15325603	          0.21729016	          0.08922190	          0.01469476	          0.05630557	          0.20117094	          0.27999528	          0.12234659	          0.02010349	          0.11172236	          0.24263771	          0.38889667	          0.09637874	          0.00465528	          0.01185121	          0.03511652	          0.05062214	          0.01961089	          0.04389660	          0.11638355	          0.06253333	          0.07509302	          0.04997365	          0.09754774	          0.35490341	          0.31146342	          0.53682530	          0.08610153	          0.19112045	          0.41399448	          0.27940682	          0.50788163	          0.05093201	          0.00459197	          0.01684798	          0.04273758	          0.04916898	          0.03630618	
          0.27037036	          0.01155430	          0.05099486	          0.10239819	          0.15572686	          0.04906951	          0.00884279	          0.05184549	          0.05062951	          0.06821310	          0.03304591	          0.00750396	          0.11129236	          0.15259111	          0.21666844	          0.08851378	          0.00259757	          0.05671510	          0.20106135	          0.27974116	          0.12238155	          0.02676243	          0.11229855	          0.24182069	          0.38826607	          0.09537531	          0.00495694	          0.01246318	          0.03522502	          0.05073100	          0.01971903	          0.05016969	          0.11448143	          0.06202695	          0.07404458	          0.05000932	          0.01439820	          0.34944342	          0.31271029	          0.53837563	          0.08704494	          0.17047999	          0.41175230	          0.27934363	          0.50871450	          0.04997277	          0.00134049	          0.01670978	          0.04285309	          0.04933028	          0.03637591	
          0.27129629	          0.00384405	          0.05003262	          0.10207272	          0.15543336	          0.04871207	          0.01271123	          0.05185583	          0.05019549	          0.06758089	          0.03281008	          0.01073966	          0.11172208	          0.15193966	          0.21605100	          0.08782832	          0.01132031	          0.05718388	          0.20094500	          0.27948312	          0.12240689	          0.02401890	          0.11294385	          0.24100697	          0.38762830	          0.09438564	          0.00010501	          0.01311032	          0.03533308	          0.05083948	          0.01982668	          0.05985108	          0.11260602	          0.06154070	          0.07304168	          0.05003972	          0.01012482	          0.34404655	          0.31394681	          0.53990318	          0.08799045	          0.11135139	          0.40948653	          0.27928102	          0.50956134	          0.04900070	          0.00025671	          0.01658130	          0.04296795	          0.04949154	          0.03644435	
          0.27222222	          0.01719128	          0.04909476	          0.10175029	          0.15513733	          0.04836325	          0.01027027	          0.05183750	          0.04976117	          0.06694822	          0.03257413	          0.02729540	          0.11212760	          0.15130158	          0.21543776	          0.08716539	          0.02142315	          0.05770975	          0.20082195	          0.27922124	          0.12242266	          0.01368239	          0.11365355	          0.24019660	          0.38698326	          0.09340994	         -0.00007911	          0.01379133	          0.03544068	          0.05094755	          0.01993381	          0.06485571	          0.11076332	          0.06107454	          0.07208426	          0.05006482	          0.07179803	          0.33872644	          0.31517276	          0.54140763	          0.08893789	          0.11135449	          0.40720728	          0.27921906	          0.51042195	          0.04801618	          0.00071085	          0.01646239	          0.04308210	          0.04965272	          0.03651148	
          0.27314812	          0.02455743	          0.04818243	          0.10143093	          0.15483880	          0.04802306	          0.00266984	          0.05179028	          0.04932658	          0.06631513	          0.03233804	          0.03434148	          0.11250906	          0.15067688	          0.21482871	          0.08652505	          0.02588721	          0.05829045	          0.20069215	          0.27895541	          0.12242889	          0.02102106	          0.11442285	          0.23938957	          0.38633093	          0.09244820	          0.00102481	          0.01450481	          0.03554778	          0.05105515	          0.02004040	          0.04930101	          0.10895919	          0.06062847	          0.07117226	          0.05008467	          0.25420763	          0.33349650	          0.31638792	          0.54288884	          0.08988701	          0.05768594	          0.40492502	          0.27915776	          0.51129596	          0.04701956	          0.00028848	          0.01635290	          0.04319548	          0.04981369	          0.03657727	
          0.27407405	          0.02156923	          0.04729674	          0.10111462	          0.15453776	          0.04769147	          0.00678043	          0.05171400	          0.04889176	          0.06568169	          0.03210182	          0.04887571	          0.11286672	          0.15006547	          0.21422376	          0.08590717	          0.01692686	          0.05892363	          0.20055558	          0.27868558	          0.12242557	          0.01757538	          0.11524680	          0.23858586	          0.38567126	          0.09150046	          0.00338584	          0.01524929	          0.03565435	          0.05116225	          0.02014645	          0.03019291	          0.10719929	          0.06020240	          0.07030554	          0.05009927	          0.26344044	          0.32836980	          0.31759238	          0.54434679	          0.09083797	          0.08759486	          0.40265056	          0.27909729	          0.51218328	          0.04601130	          0.00068156	          0.01625264	          0.04330805	          0.04997442	          0.03664168	
          0.27499998	          0.02273200	          0.04643874	          0.10080139	          0.15423427	          0.04736850	          0.00636859	          0.05160852	          0.04845675	          0.06504799	          0.03186551	          0.05733933	          0.11320091	          0.14946727	          0.21362285	          0.08531170	          0.00396454	          0.05960682	          0.20041227	          0.27841179	          0.12241276	          0.01087534	          0.11612038	          0.23778555	          0.38500422	          0.09056687	          0.00543482	          0.01602318	          0.03576035	          0.05126878	          0.02025193	          0.01568605	          0.10548909	          0.05979633	          0.06948402	          0.05010863	          0.04056819	          0.32335908	          0.31878573	          0.54578120	          0.09179026	          0.18391364	          0.40039497	          0.27903771	          0.51308362	          0.04499181	          0.00316470	          0.01616140	          0.04341976	          0.05013482	          0.03670470	
          0.27592590	          0.01788396	          0.04560942	          0.10049124	          0.15392835	          0.04705413	          0.01528493	          0.05147371	          0.04802163	          0.06441413	          0.03162913	          0.02062350	          0.11351204	          0.14888225	          0.21302591	          0.08473860	          0.00639006	          0.06033751	          0.20026222	          0.27813398	          0.12239046	          0.00684466	          0.11703849	          0.23698866	          0.38432983	          0.08964750	          0.00130668	          0.01682482	          0.03586577	          0.05137472	          0.02035682	          0.00328052	          0.10383384	          0.05941018	          0.06870761	          0.05011275	          0.07651647	          0.31847664	          0.31996796	          0.54719190	          0.09274401	          0.15166129	          0.39816954	          0.27897909	          0.51399671	          0.04396148	          0.00426915	          0.01607897	          0.04353055	          0.05029480	          0.03676630	
          0.27685183	          0.00930746	          0.04480972	          0.10018416	          0.15361999	          0.04674834	          0.01511552	          0.05130951	          0.04758641	          0.06378016	          0.03139267	          0.02205320	          0.11380056	          0.14831033	          0.21243291	          0.08418776	          0.00530825	          0.06111307	          0.20010541	          0.27785210	          0.12235872	          0.01354848	          0.11799596	          0.23619519	          0.38364796	          0.08874242	          0.00208477	          0.01765248	          0.03597055	          0.05147999	          0.02046110	          0.00030357	          0.10223860	          0.05904394	          0.06797619	          0.05011168	          0.03325069	          0.31373435	          0.32113871	          0.54857872	          0.09369870	          0.07882619	          0.39598571	          0.27892160	          0.51492234	          0.04292087	          0.00073901	          0.01600510	          0.04364037	          0.05045430	          0.03682644	
